<mxfile host="Electron" modified="2023-06-18T19:54:39.728Z" agent="Mozilla/5.0 (Macintosh; Intel Mac OS X 10_15_7) AppleWebKit/537.36 (KHTML, like Gecko) draw.io/21.4.0 Chrome/112.0.5615.204 Electron/24.5.1 Safari/537.36" etag="eUGs0ogJth2N3O95nFLL" version="21.4.0" type="device">
  <diagram name="Page-1" id="7goAfNgXgyfBGdVG2snB">
    <mxGraphModel dx="969" dy="679" grid="1" gridSize="10" guides="1" tooltips="1" connect="1" arrows="1" fold="1" page="1" pageScale="1" pageWidth="827" pageHeight="1169" math="0" shadow="0">
      <root>
        <mxCell id="0" />
        <mxCell id="1" parent="0" />
        <mxCell id="mHHDpfGU3PxfS-aLSx6O-90" value="" style="group" parent="1" vertex="1" connectable="0">
          <mxGeometry x="20" y="20" width="1610" height="995" as="geometry" />
        </mxCell>
        <mxCell id="mHHDpfGU3PxfS-aLSx6O-1" value="START" style="ellipse;whiteSpace=wrap;html=1;fillColor=#d5e8d4;strokeColor=#82b366;" parent="mHHDpfGU3PxfS-aLSx6O-90" vertex="1">
          <mxGeometry y="60" width="120" height="80" as="geometry" />
        </mxCell>
        <mxCell id="mHHDpfGU3PxfS-aLSx6O-64" style="edgeStyle=orthogonalEdgeStyle;rounded=0;orthogonalLoop=1;jettySize=auto;html=1;" parent="mHHDpfGU3PxfS-aLSx6O-90" edge="1">
          <mxGeometry relative="1" as="geometry">
            <mxPoint x="60" y="180" as="targetPoint" />
            <mxPoint x="60.04761904761881" y="140" as="sourcePoint" />
          </mxGeometry>
        </mxCell>
        <mxCell id="mHHDpfGU3PxfS-aLSx6O-5" value="Ask how many people (input numPeople)" style="rounded=0;whiteSpace=wrap;html=1;" parent="mHHDpfGU3PxfS-aLSx6O-90" vertex="1">
          <mxGeometry y="180" width="120" height="60" as="geometry" />
        </mxCell>
        <mxCell id="mHHDpfGU3PxfS-aLSx6O-6" value="numPeople == 2" style="rhombus;whiteSpace=wrap;html=1;" parent="mHHDpfGU3PxfS-aLSx6O-90" vertex="1">
          <mxGeometry x="4" y="270" width="112" height="110" as="geometry" />
        </mxCell>
        <mxCell id="mHHDpfGU3PxfS-aLSx6O-9" value="numPeople == 3" style="rhombus;whiteSpace=wrap;html=1;" parent="mHHDpfGU3PxfS-aLSx6O-90" vertex="1">
          <mxGeometry x="4" y="420" width="112" height="110" as="geometry" />
        </mxCell>
        <mxCell id="mHHDpfGU3PxfS-aLSx6O-11" value="numPeople == 4" style="rhombus;whiteSpace=wrap;html=1;" parent="mHHDpfGU3PxfS-aLSx6O-90" vertex="1">
          <mxGeometry x="4" y="570" width="112" height="110" as="geometry" />
        </mxCell>
        <mxCell id="mHHDpfGU3PxfS-aLSx6O-13" value="numPeople &amp;gt;= 5" style="rhombus;whiteSpace=wrap;html=1;" parent="mHHDpfGU3PxfS-aLSx6O-90" vertex="1">
          <mxGeometry x="4" y="720" width="112" height="110" as="geometry" />
        </mxCell>
        <mxCell id="mHHDpfGU3PxfS-aLSx6O-18" value="" style="endArrow=classic;html=1;rounded=0;" parent="mHHDpfGU3PxfS-aLSx6O-90" edge="1">
          <mxGeometry width="50" height="50" relative="1" as="geometry">
            <mxPoint x="59" y="240" as="sourcePoint" />
            <mxPoint x="59" y="270" as="targetPoint" />
          </mxGeometry>
        </mxCell>
        <mxCell id="mHHDpfGU3PxfS-aLSx6O-21" value="" style="endArrow=classic;html=1;rounded=0;" parent="mHHDpfGU3PxfS-aLSx6O-90" edge="1">
          <mxGeometry relative="1" as="geometry">
            <mxPoint x="116" y="324.65999999999997" as="sourcePoint" />
            <mxPoint x="200" y="325" as="targetPoint" />
          </mxGeometry>
        </mxCell>
        <mxCell id="mHHDpfGU3PxfS-aLSx6O-22" value="YES" style="edgeLabel;resizable=0;html=1;align=center;verticalAlign=middle;" parent="mHHDpfGU3PxfS-aLSx6O-21" connectable="0" vertex="1">
          <mxGeometry relative="1" as="geometry" />
        </mxCell>
        <mxCell id="mHHDpfGU3PxfS-aLSx6O-23" value="" style="endArrow=classic;html=1;rounded=0;entryX=-0.043;entryY=0.458;entryDx=0;entryDy=0;entryPerimeter=0;" parent="mHHDpfGU3PxfS-aLSx6O-90" edge="1">
          <mxGeometry relative="1" as="geometry">
            <mxPoint x="116" y="475.8299999999999" as="sourcePoint" />
            <mxPoint x="201" y="474.16999999999996" as="targetPoint" />
          </mxGeometry>
        </mxCell>
        <mxCell id="mHHDpfGU3PxfS-aLSx6O-24" value="YES" style="edgeLabel;resizable=0;html=1;align=center;verticalAlign=middle;" parent="mHHDpfGU3PxfS-aLSx6O-23" connectable="0" vertex="1">
          <mxGeometry relative="1" as="geometry" />
        </mxCell>
        <mxCell id="mHHDpfGU3PxfS-aLSx6O-25" value="" style="endArrow=classic;html=1;rounded=0;entryX=-0.043;entryY=0.458;entryDx=0;entryDy=0;entryPerimeter=0;" parent="mHHDpfGU3PxfS-aLSx6O-90" edge="1">
          <mxGeometry relative="1" as="geometry">
            <mxPoint x="116" y="625.8299999999999" as="sourcePoint" />
            <mxPoint x="201" y="624.17" as="targetPoint" />
          </mxGeometry>
        </mxCell>
        <mxCell id="mHHDpfGU3PxfS-aLSx6O-26" value="YES" style="edgeLabel;resizable=0;html=1;align=center;verticalAlign=middle;" parent="mHHDpfGU3PxfS-aLSx6O-25" connectable="0" vertex="1">
          <mxGeometry relative="1" as="geometry" />
        </mxCell>
        <mxCell id="mHHDpfGU3PxfS-aLSx6O-27" value="" style="endArrow=classic;html=1;rounded=0;entryX=-0.043;entryY=0.458;entryDx=0;entryDy=0;entryPerimeter=0;" parent="mHHDpfGU3PxfS-aLSx6O-90" edge="1">
          <mxGeometry relative="1" as="geometry">
            <mxPoint x="116" y="775.8299999999999" as="sourcePoint" />
            <mxPoint x="201" y="774.17" as="targetPoint" />
          </mxGeometry>
        </mxCell>
        <mxCell id="mHHDpfGU3PxfS-aLSx6O-28" value="YES" style="edgeLabel;resizable=0;html=1;align=center;verticalAlign=middle;" parent="mHHDpfGU3PxfS-aLSx6O-27" connectable="0" vertex="1">
          <mxGeometry relative="1" as="geometry" />
        </mxCell>
        <mxCell id="mHHDpfGU3PxfS-aLSx6O-29" value="" style="endArrow=classic;html=1;rounded=0;exitX=0.5;exitY=1;exitDx=0;exitDy=0;entryX=0.5;entryY=0;entryDx=0;entryDy=0;" parent="mHHDpfGU3PxfS-aLSx6O-90" source="mHHDpfGU3PxfS-aLSx6O-6" target="mHHDpfGU3PxfS-aLSx6O-9" edge="1">
          <mxGeometry relative="1" as="geometry">
            <mxPoint x="60" y="390" as="sourcePoint" />
            <mxPoint x="66" y="410" as="targetPoint" />
          </mxGeometry>
        </mxCell>
        <mxCell id="mHHDpfGU3PxfS-aLSx6O-30" value="NO" style="edgeLabel;resizable=0;html=1;align=center;verticalAlign=middle;" parent="mHHDpfGU3PxfS-aLSx6O-29" connectable="0" vertex="1">
          <mxGeometry relative="1" as="geometry" />
        </mxCell>
        <mxCell id="mHHDpfGU3PxfS-aLSx6O-31" value="" style="endArrow=classic;html=1;rounded=0;exitX=0.5;exitY=1;exitDx=0;exitDy=0;entryX=0.5;entryY=0;entryDx=0;entryDy=0;" parent="mHHDpfGU3PxfS-aLSx6O-90" edge="1">
          <mxGeometry relative="1" as="geometry">
            <mxPoint x="59.68000000000001" y="530" as="sourcePoint" />
            <mxPoint x="59.68000000000001" y="570" as="targetPoint" />
          </mxGeometry>
        </mxCell>
        <mxCell id="mHHDpfGU3PxfS-aLSx6O-32" value="NO" style="edgeLabel;resizable=0;html=1;align=center;verticalAlign=middle;" parent="mHHDpfGU3PxfS-aLSx6O-31" connectable="0" vertex="1">
          <mxGeometry relative="1" as="geometry" />
        </mxCell>
        <mxCell id="mHHDpfGU3PxfS-aLSx6O-33" value="" style="endArrow=classic;html=1;rounded=0;exitX=0.5;exitY=1;exitDx=0;exitDy=0;entryX=0.5;entryY=0;entryDx=0;entryDy=0;" parent="mHHDpfGU3PxfS-aLSx6O-90" edge="1">
          <mxGeometry relative="1" as="geometry">
            <mxPoint x="59.68000000000001" y="680" as="sourcePoint" />
            <mxPoint x="59.68000000000001" y="720" as="targetPoint" />
          </mxGeometry>
        </mxCell>
        <mxCell id="mHHDpfGU3PxfS-aLSx6O-34" value="NO" style="edgeLabel;resizable=0;html=1;align=center;verticalAlign=middle;" parent="mHHDpfGU3PxfS-aLSx6O-33" connectable="0" vertex="1">
          <mxGeometry relative="1" as="geometry" />
        </mxCell>
        <mxCell id="mHHDpfGU3PxfS-aLSx6O-35" value="" style="endArrow=classic;html=1;rounded=0;exitX=0.5;exitY=1;exitDx=0;exitDy=0;" parent="mHHDpfGU3PxfS-aLSx6O-90" edge="1">
          <mxGeometry relative="1" as="geometry">
            <mxPoint x="59.68000000000001" y="830" as="sourcePoint" />
            <mxPoint x="60" y="890" as="targetPoint" />
          </mxGeometry>
        </mxCell>
        <mxCell id="mHHDpfGU3PxfS-aLSx6O-36" value="NO" style="edgeLabel;resizable=0;html=1;align=center;verticalAlign=middle;" parent="mHHDpfGU3PxfS-aLSx6O-35" connectable="0" vertex="1">
          <mxGeometry relative="1" as="geometry" />
        </mxCell>
        <mxCell id="mHHDpfGU3PxfS-aLSx6O-37" value="no discount apply&lt;br&gt;(discount = 0)" style="whiteSpace=wrap;html=1;aspect=fixed;" parent="mHHDpfGU3PxfS-aLSx6O-90" vertex="1">
          <mxGeometry x="11" y="890" width="105" height="105" as="geometry" />
        </mxCell>
        <mxCell id="mHHDpfGU3PxfS-aLSx6O-41" value="END" style="ellipse;whiteSpace=wrap;html=1;fillColor=#f8cecc;strokeColor=#b85450;" parent="mHHDpfGU3PxfS-aLSx6O-90" vertex="1">
          <mxGeometry x="640" y="515" width="120" height="80" as="geometry" />
        </mxCell>
        <mxCell id="mHHDpfGU3PxfS-aLSx6O-42" value="Apply 5% to total ticket_cost &lt;br&gt;(discount =&amp;nbsp;ticket_cost * 0.05)" style="rounded=0;whiteSpace=wrap;html=1;" parent="mHHDpfGU3PxfS-aLSx6O-90" vertex="1">
          <mxGeometry x="200" y="295" width="170" height="60" as="geometry" />
        </mxCell>
        <mxCell id="mHHDpfGU3PxfS-aLSx6O-45" value="Apply 15% to total ticket_cost (discount =&amp;nbsp;ticket_cost * 0.15)" style="rounded=0;whiteSpace=wrap;html=1;" parent="mHHDpfGU3PxfS-aLSx6O-90" vertex="1">
          <mxGeometry x="200" y="445" width="170" height="60" as="geometry" />
        </mxCell>
        <mxCell id="mHHDpfGU3PxfS-aLSx6O-46" value="Apply 20% to total ticket_cost (discount = ticket_cost * 0.20)" style="rounded=0;whiteSpace=wrap;html=1;" parent="mHHDpfGU3PxfS-aLSx6O-90" vertex="1">
          <mxGeometry x="200" y="595" width="170" height="60" as="geometry" />
        </mxCell>
        <mxCell id="mHHDpfGU3PxfS-aLSx6O-47" value="Apply 30% to total ticket_cost (discount = ticket_cost * 0.30)" style="rounded=0;whiteSpace=wrap;html=1;" parent="mHHDpfGU3PxfS-aLSx6O-90" vertex="1">
          <mxGeometry x="200" y="745" width="170" height="60" as="geometry" />
        </mxCell>
        <mxCell id="mHHDpfGU3PxfS-aLSx6O-54" style="edgeStyle=orthogonalEdgeStyle;rounded=0;orthogonalLoop=1;jettySize=auto;html=1;entryX=0;entryY=0.5;entryDx=0;entryDy=0;" parent="mHHDpfGU3PxfS-aLSx6O-90" source="mHHDpfGU3PxfS-aLSx6O-48" target="mHHDpfGU3PxfS-aLSx6O-41" edge="1">
          <mxGeometry relative="1" as="geometry" />
        </mxCell>
        <mxCell id="mHHDpfGU3PxfS-aLSx6O-48" value="Store discount data so it can be taken off to the printed receipt&amp;nbsp;" style="whiteSpace=wrap;html=1;aspect=fixed;" parent="mHHDpfGU3PxfS-aLSx6O-90" vertex="1">
          <mxGeometry x="440" y="495" width="120" height="120" as="geometry" />
        </mxCell>
        <mxCell id="mHHDpfGU3PxfS-aLSx6O-55" style="edgeStyle=orthogonalEdgeStyle;rounded=0;orthogonalLoop=1;jettySize=auto;html=1;entryX=0.646;entryY=0.99;entryDx=0;entryDy=0;entryPerimeter=0;" parent="mHHDpfGU3PxfS-aLSx6O-90" source="mHHDpfGU3PxfS-aLSx6O-37" target="mHHDpfGU3PxfS-aLSx6O-48" edge="1">
          <mxGeometry relative="1" as="geometry" />
        </mxCell>
        <mxCell id="mHHDpfGU3PxfS-aLSx6O-50" style="edgeStyle=orthogonalEdgeStyle;rounded=0;orthogonalLoop=1;jettySize=auto;html=1;exitX=1;exitY=0.5;exitDx=0;exitDy=0;entryX=0.5;entryY=0;entryDx=0;entryDy=0;" parent="mHHDpfGU3PxfS-aLSx6O-90" source="mHHDpfGU3PxfS-aLSx6O-42" target="mHHDpfGU3PxfS-aLSx6O-48" edge="1">
          <mxGeometry relative="1" as="geometry" />
        </mxCell>
        <mxCell id="mHHDpfGU3PxfS-aLSx6O-51" style="edgeStyle=orthogonalEdgeStyle;rounded=0;orthogonalLoop=1;jettySize=auto;html=1;entryX=0.25;entryY=0;entryDx=0;entryDy=0;" parent="mHHDpfGU3PxfS-aLSx6O-90" source="mHHDpfGU3PxfS-aLSx6O-45" target="mHHDpfGU3PxfS-aLSx6O-48" edge="1">
          <mxGeometry relative="1" as="geometry" />
        </mxCell>
        <mxCell id="mHHDpfGU3PxfS-aLSx6O-52" style="edgeStyle=orthogonalEdgeStyle;rounded=0;orthogonalLoop=1;jettySize=auto;html=1;entryX=0.25;entryY=1;entryDx=0;entryDy=0;" parent="mHHDpfGU3PxfS-aLSx6O-90" source="mHHDpfGU3PxfS-aLSx6O-46" target="mHHDpfGU3PxfS-aLSx6O-48" edge="1">
          <mxGeometry relative="1" as="geometry">
            <Array as="points">
              <mxPoint x="470" y="630" />
            </Array>
          </mxGeometry>
        </mxCell>
        <mxCell id="mHHDpfGU3PxfS-aLSx6O-53" style="edgeStyle=orthogonalEdgeStyle;rounded=0;orthogonalLoop=1;jettySize=auto;html=1;entryX=0.5;entryY=1;entryDx=0;entryDy=0;" parent="mHHDpfGU3PxfS-aLSx6O-90" source="mHHDpfGU3PxfS-aLSx6O-47" target="mHHDpfGU3PxfS-aLSx6O-48" edge="1">
          <mxGeometry relative="1" as="geometry" />
        </mxCell>
        <mxCell id="mHHDpfGU3PxfS-aLSx6O-61" value="" style="group" parent="mHHDpfGU3PxfS-aLSx6O-90" vertex="1" connectable="0">
          <mxGeometry x="290" width="100" height="160" as="geometry" />
        </mxCell>
        <mxCell id="mHHDpfGU3PxfS-aLSx6O-56" value="Inputs:&lt;br&gt;&lt;br&gt;localTime&lt;br&gt;numPeople&lt;br&gt;ticket_cost&lt;br&gt;&lt;div style=&quot;text-align: left;&quot;&gt;&lt;span style=&quot;background-color: initial;&quot;&gt;discount&lt;/span&gt;&lt;/div&gt;&lt;div style=&quot;text-align: left;&quot;&gt;&lt;span style=&quot;background-color: initial;&quot;&gt;&lt;br&gt;&lt;/span&gt;&lt;/div&gt;" style="text;html=1;align=center;verticalAlign=middle;resizable=0;points=[];autosize=1;strokeColor=none;fillColor=none;" parent="mHHDpfGU3PxfS-aLSx6O-61" vertex="1">
          <mxGeometry x="10" y="50" width="80" height="110" as="geometry" />
        </mxCell>
        <mxCell id="mHHDpfGU3PxfS-aLSx6O-57" value="Part 3&lt;br&gt;Discounts" style="text;strokeColor=none;fillColor=none;html=1;fontSize=24;fontStyle=1;verticalAlign=middle;align=center;" parent="mHHDpfGU3PxfS-aLSx6O-61" vertex="1">
          <mxGeometry width="100" height="40" as="geometry" />
        </mxCell>
        <mxCell id="mHHDpfGU3PxfS-aLSx6O-75" value="" style="group" parent="mHHDpfGU3PxfS-aLSx6O-90" vertex="1" connectable="0">
          <mxGeometry x="820" y="390" width="790" height="400" as="geometry" />
        </mxCell>
        <mxCell id="mHHDpfGU3PxfS-aLSx6O-69" value="Scenarios" style="text;strokeColor=none;fillColor=none;html=1;fontSize=24;fontStyle=1;verticalAlign=middle;align=center;" parent="mHHDpfGU3PxfS-aLSx6O-75" vertex="1">
          <mxGeometry x="340" width="100" height="40" as="geometry" />
        </mxCell>
        <mxCell id="mHHDpfGU3PxfS-aLSx6O-72" value="&lt;h1&gt;&lt;font style=&quot;font-size: 20px;&quot;&gt;1. One senior goes to the A La Carte venue at 8:00PM to see the musical &quot;The walking dead&quot;. Using your flowchart to determine the discount.&lt;/font&gt;&lt;br&gt;&lt;/h1&gt;&lt;div&gt;&lt;font color=&quot;#ff3333&quot; style=&quot;font-size: 19px;&quot;&gt;&lt;i&gt;According the flowchart, 0% (no discount) on the total will be stored under discount.&lt;/i&gt;&lt;/font&gt;&lt;/div&gt;&lt;div&gt;&lt;i style=&quot;font-size: 19px; color: rgb(255, 51, 51); background-color: initial;&quot;&gt;&amp;nbsp;&lt;/i&gt;&lt;br&gt;&lt;/div&gt;&lt;font style=&quot;font-size: 20px;&quot;&gt;&lt;b&gt;2. One senior and two adults go to A La Carte at 3:00 PM to see the theatre production of &quot;Daenerys Rides Dragons&quot;.&lt;/b&gt;&lt;/font&gt;&lt;br&gt;&lt;i style=&quot;border-color: var(--border-color); color: rgb(255, 51, 51); font-size: 19px;&quot;&gt;&lt;br&gt;According the flowchart, 15% on the total ($31.50) will be stored under discount.&lt;br&gt;&lt;/i&gt;&lt;br&gt;&lt;b&gt;&lt;font style=&quot;font-size: 20px;&quot;&gt;3. Two adults and five childen go to A La Carte venue at 8:00PM to see the musical of &quot;APS145 Puts Logic to Music&quot;.&lt;/font&gt;&lt;/b&gt;&lt;br&gt;&lt;br&gt;&lt;i style=&quot;border-color: var(--border-color); color: rgb(255, 51, 51); font-size: 19px;&quot;&gt;According the flowchart, 30% on the total ($225.00) will be stored under discount.&lt;/i&gt;" style="text;html=1;strokeColor=none;fillColor=none;spacing=5;spacingTop=-20;whiteSpace=wrap;overflow=hidden;rounded=0;" parent="mHHDpfGU3PxfS-aLSx6O-75" vertex="1">
          <mxGeometry y="55" width="790" height="345" as="geometry" />
        </mxCell>
        <mxCell id="mHHDpfGU3PxfS-aLSx6O-81" value="" style="endArrow=none;dashed=1;html=1;dashPattern=1 3;strokeWidth=2;rounded=0;fillColor=#fff2cc;strokeColor=#d6b656;" parent="mHHDpfGU3PxfS-aLSx6O-90" edge="1">
          <mxGeometry width="50" height="50" relative="1" as="geometry">
            <mxPoint x="780" y="970" as="sourcePoint" />
            <mxPoint x="120" y="970" as="targetPoint" />
          </mxGeometry>
        </mxCell>
        <mxCell id="mHHDpfGU3PxfS-aLSx6O-82" value="" style="endArrow=none;dashed=1;html=1;dashPattern=1 3;strokeWidth=2;rounded=0;fillColor=#fff2cc;strokeColor=#d6b656;" parent="mHHDpfGU3PxfS-aLSx6O-90" edge="1">
          <mxGeometry width="50" height="50" relative="1" as="geometry">
            <mxPoint x="780" y="970" as="sourcePoint" />
            <mxPoint x="780" y="470" as="targetPoint" />
          </mxGeometry>
        </mxCell>
        <mxCell id="mHHDpfGU3PxfS-aLSx6O-83" value="" style="endArrow=classic;html=1;rounded=0;fillColor=#fff2cc;strokeColor=#d6b656;" parent="mHHDpfGU3PxfS-aLSx6O-90" edge="1">
          <mxGeometry width="50" height="50" relative="1" as="geometry">
            <mxPoint x="780" y="470" as="sourcePoint" />
            <mxPoint x="810" y="470" as="targetPoint" />
          </mxGeometry>
        </mxCell>
        <mxCell id="mHHDpfGU3PxfS-aLSx6O-84" value="" style="endArrow=none;dashed=1;html=1;dashPattern=1 3;strokeWidth=2;rounded=0;fillColor=#fff2cc;strokeColor=#d6b656;" parent="mHHDpfGU3PxfS-aLSx6O-90" edge="1">
          <mxGeometry width="50" height="50" relative="1" as="geometry">
            <mxPoint x="120" y="436" as="sourcePoint" />
            <mxPoint x="770" y="436" as="targetPoint" />
          </mxGeometry>
        </mxCell>
        <mxCell id="mHHDpfGU3PxfS-aLSx6O-85" value="" style="endArrow=none;dashed=1;html=1;dashPattern=1 3;strokeWidth=2;rounded=0;fillColor=#fff2cc;strokeColor=#d6b656;" parent="mHHDpfGU3PxfS-aLSx6O-90" edge="1">
          <mxGeometry width="50" height="50" relative="1" as="geometry">
            <mxPoint x="770" y="580" as="sourcePoint" />
            <mxPoint x="770" y="440" as="targetPoint" />
          </mxGeometry>
        </mxCell>
        <mxCell id="mHHDpfGU3PxfS-aLSx6O-86" value="" style="endArrow=classic;html=1;rounded=0;fillColor=#fff2cc;strokeColor=#d6b656;" parent="mHHDpfGU3PxfS-aLSx6O-90" edge="1">
          <mxGeometry width="50" height="50" relative="1" as="geometry">
            <mxPoint x="770" y="580" as="sourcePoint" />
            <mxPoint x="820" y="580" as="targetPoint" />
          </mxGeometry>
        </mxCell>
        <mxCell id="mHHDpfGU3PxfS-aLSx6O-87" value="" style="endArrow=none;dashed=1;html=1;dashPattern=1 3;strokeWidth=2;rounded=0;fillColor=#fff2cc;strokeColor=#d6b656;" parent="mHHDpfGU3PxfS-aLSx6O-90" edge="1">
          <mxGeometry width="50" height="50" relative="1" as="geometry">
            <mxPoint x="98" y="459" as="sourcePoint" />
            <mxPoint x="121" y="435" as="targetPoint" />
          </mxGeometry>
        </mxCell>
        <mxCell id="mHHDpfGU3PxfS-aLSx6O-88" value="" style="endArrow=none;dashed=1;html=1;dashPattern=1 3;strokeWidth=2;rounded=0;fillColor=#fff2cc;strokeColor=#d6b656;" parent="mHHDpfGU3PxfS-aLSx6O-90" edge="1">
          <mxGeometry width="50" height="50" relative="1" as="geometry">
            <mxPoint x="80" y="740" as="sourcePoint" />
            <mxPoint x="760" y="690" as="targetPoint" />
          </mxGeometry>
        </mxCell>
        <mxCell id="mHHDpfGU3PxfS-aLSx6O-89" value="" style="endArrow=classic;html=1;rounded=0;fillColor=#fff2cc;strokeColor=#d6b656;entryX=-0.005;entryY=0.709;entryDx=0;entryDy=0;entryPerimeter=0;" parent="mHHDpfGU3PxfS-aLSx6O-90" target="mHHDpfGU3PxfS-aLSx6O-72" edge="1">
          <mxGeometry width="50" height="50" relative="1" as="geometry">
            <mxPoint x="760" y="690" as="sourcePoint" />
            <mxPoint x="810" y="690" as="targetPoint" />
          </mxGeometry>
        </mxCell>
        <mxCell id="mHHDpfGU3PxfS-aLSx6O-139" value="HIRAN TIAGO LINS BORBA&lt;br&gt;ID.: 147216220&lt;br&gt;APS145-ZDD-G5-M3" style="text;html=1;strokeColor=none;fillColor=none;align=center;verticalAlign=middle;whiteSpace=wrap;rounded=0;fontStyle=1" parent="mHHDpfGU3PxfS-aLSx6O-90" vertex="1">
          <mxGeometry x="850" y="30" width="290" height="40" as="geometry" />
        </mxCell>
        <mxCell id="mHHDpfGU3PxfS-aLSx6O-131" value="" style="group" parent="1" vertex="1" connectable="0">
          <mxGeometry x="380" y="1280" width="100" height="160" as="geometry" />
        </mxCell>
        <mxCell id="mHHDpfGU3PxfS-aLSx6O-91" value="Part 4&lt;br&gt;Snack Charges" style="text;strokeColor=none;fillColor=none;html=1;fontSize=24;fontStyle=1;verticalAlign=middle;align=center;" parent="mHHDpfGU3PxfS-aLSx6O-131" vertex="1">
          <mxGeometry width="100" height="40" as="geometry" />
        </mxCell>
        <mxCell id="mHHDpfGU3PxfS-aLSx6O-92" value="Inputs:&lt;br&gt;&lt;br&gt;snacks&lt;br&gt;nAbev&lt;br&gt;aBev&lt;br&gt;candys" style="text;html=1;align=left;verticalAlign=middle;resizable=0;points=[];autosize=1;strokeColor=none;fillColor=none;" parent="mHHDpfGU3PxfS-aLSx6O-131" vertex="1">
          <mxGeometry x="20" y="60" width="60" height="100" as="geometry" />
        </mxCell>
        <mxCell id="mHHDpfGU3PxfS-aLSx6O-132" value="" style="group" parent="1" vertex="1" connectable="0">
          <mxGeometry x="10" y="1310" width="840" height="860" as="geometry" />
        </mxCell>
        <mxCell id="mHHDpfGU3PxfS-aLSx6O-93" value="START" style="ellipse;whiteSpace=wrap;html=1;fillColor=#d5e8d4;strokeColor=#82b366;" parent="mHHDpfGU3PxfS-aLSx6O-132" vertex="1">
          <mxGeometry width="120" height="80" as="geometry" />
        </mxCell>
        <mxCell id="mHHDpfGU3PxfS-aLSx6O-94" value="ASK IF THEY WOULD LIKE SOME SNACKS&lt;br&gt;(snacks)" style="rhombus;whiteSpace=wrap;html=1;" parent="mHHDpfGU3PxfS-aLSx6O-132" vertex="1">
          <mxGeometry y="130" width="120" height="130" as="geometry" />
        </mxCell>
        <mxCell id="mHHDpfGU3PxfS-aLSx6O-126" style="edgeStyle=orthogonalEdgeStyle;rounded=0;orthogonalLoop=1;jettySize=auto;html=1;" parent="mHHDpfGU3PxfS-aLSx6O-132" source="mHHDpfGU3PxfS-aLSx6O-93" target="mHHDpfGU3PxfS-aLSx6O-94" edge="1">
          <mxGeometry relative="1" as="geometry" />
        </mxCell>
        <mxCell id="mHHDpfGU3PxfS-aLSx6O-95" value="&lt;font style=&quot;font-size: 14px;&quot;&gt;Non-alcoholic beverages&lt;br&gt;(nAbev)&lt;br&gt;&lt;/font&gt;" style="rounded=0;whiteSpace=wrap;html=1;" parent="mHHDpfGU3PxfS-aLSx6O-132" vertex="1">
          <mxGeometry x="200" y="157.5" width="160" height="75" as="geometry" />
        </mxCell>
        <mxCell id="mHHDpfGU3PxfS-aLSx6O-98" value="YES" style="edgeStyle=orthogonalEdgeStyle;rounded=0;orthogonalLoop=1;jettySize=auto;html=1;entryX=-0.029;entryY=0.498;entryDx=0;entryDy=0;entryPerimeter=0;" parent="mHHDpfGU3PxfS-aLSx6O-132" source="mHHDpfGU3PxfS-aLSx6O-94" target="mHHDpfGU3PxfS-aLSx6O-95" edge="1">
          <mxGeometry relative="1" as="geometry" />
        </mxCell>
        <mxCell id="mHHDpfGU3PxfS-aLSx6O-96" value="&lt;font style=&quot;font-size: 14px;&quot;&gt;Alcoholic beverages&lt;br&gt;(aBev)&lt;br&gt;&lt;/font&gt;" style="rounded=0;whiteSpace=wrap;html=1;" parent="mHHDpfGU3PxfS-aLSx6O-132" vertex="1">
          <mxGeometry x="440" y="157.5" width="160" height="75" as="geometry" />
        </mxCell>
        <mxCell id="mHHDpfGU3PxfS-aLSx6O-100" value="NO" style="edgeStyle=orthogonalEdgeStyle;rounded=0;orthogonalLoop=1;jettySize=auto;html=1;entryX=0;entryY=0.5;entryDx=0;entryDy=0;" parent="mHHDpfGU3PxfS-aLSx6O-132" source="mHHDpfGU3PxfS-aLSx6O-95" target="mHHDpfGU3PxfS-aLSx6O-96" edge="1">
          <mxGeometry relative="1" as="geometry" />
        </mxCell>
        <mxCell id="mHHDpfGU3PxfS-aLSx6O-97" value="&lt;font style=&quot;font-size: 14px;&quot;&gt;Misc. Candy itens&lt;br&gt;(candys)&lt;br&gt;&lt;/font&gt;" style="rounded=0;whiteSpace=wrap;html=1;" parent="mHHDpfGU3PxfS-aLSx6O-132" vertex="1">
          <mxGeometry x="680" y="157.5" width="160" height="75" as="geometry" />
        </mxCell>
        <mxCell id="mHHDpfGU3PxfS-aLSx6O-101" value="NO" style="edgeStyle=orthogonalEdgeStyle;rounded=0;orthogonalLoop=1;jettySize=auto;html=1;entryX=0;entryY=0.5;entryDx=0;entryDy=0;" parent="mHHDpfGU3PxfS-aLSx6O-132" source="mHHDpfGU3PxfS-aLSx6O-96" target="mHHDpfGU3PxfS-aLSx6O-97" edge="1">
          <mxGeometry relative="1" as="geometry" />
        </mxCell>
        <mxCell id="mHHDpfGU3PxfS-aLSx6O-102" value="Multiple $2.25 by the amout of non-alcoholic beverages they buy." style="whiteSpace=wrap;html=1;aspect=fixed;" parent="mHHDpfGU3PxfS-aLSx6O-132" vertex="1">
          <mxGeometry x="230" y="290" width="100" height="100" as="geometry" />
        </mxCell>
        <mxCell id="mHHDpfGU3PxfS-aLSx6O-106" value="YES" style="edgeStyle=orthogonalEdgeStyle;rounded=0;orthogonalLoop=1;jettySize=auto;html=1;entryX=0.5;entryY=0;entryDx=0;entryDy=0;" parent="mHHDpfGU3PxfS-aLSx6O-132" source="mHHDpfGU3PxfS-aLSx6O-95" target="mHHDpfGU3PxfS-aLSx6O-102" edge="1">
          <mxGeometry relative="1" as="geometry" />
        </mxCell>
        <mxCell id="mHHDpfGU3PxfS-aLSx6O-103" value="Multiple $7.50 by the amout of non-alcoholic beverages they buy." style="whiteSpace=wrap;html=1;aspect=fixed;" parent="mHHDpfGU3PxfS-aLSx6O-132" vertex="1">
          <mxGeometry x="470" y="290" width="100" height="100" as="geometry" />
        </mxCell>
        <mxCell id="mHHDpfGU3PxfS-aLSx6O-107" value="YES" style="edgeStyle=orthogonalEdgeStyle;rounded=0;orthogonalLoop=1;jettySize=auto;html=1;entryX=0.5;entryY=0;entryDx=0;entryDy=0;" parent="mHHDpfGU3PxfS-aLSx6O-132" source="mHHDpfGU3PxfS-aLSx6O-96" target="mHHDpfGU3PxfS-aLSx6O-103" edge="1">
          <mxGeometry relative="1" as="geometry" />
        </mxCell>
        <mxCell id="mHHDpfGU3PxfS-aLSx6O-104" value="Multiple $1.75 by the amout of non-alcoholic beverages they buy." style="whiteSpace=wrap;html=1;aspect=fixed;" parent="mHHDpfGU3PxfS-aLSx6O-132" vertex="1">
          <mxGeometry x="710" y="290" width="100" height="100" as="geometry" />
        </mxCell>
        <mxCell id="mHHDpfGU3PxfS-aLSx6O-108" value="YES" style="edgeStyle=orthogonalEdgeStyle;rounded=0;orthogonalLoop=1;jettySize=auto;html=1;" parent="mHHDpfGU3PxfS-aLSx6O-132" source="mHHDpfGU3PxfS-aLSx6O-97" target="mHHDpfGU3PxfS-aLSx6O-104" edge="1">
          <mxGeometry relative="1" as="geometry" />
        </mxCell>
        <mxCell id="mHHDpfGU3PxfS-aLSx6O-113" style="edgeStyle=orthogonalEdgeStyle;rounded=0;orthogonalLoop=1;jettySize=auto;html=1;" parent="mHHDpfGU3PxfS-aLSx6O-132" source="mHHDpfGU3PxfS-aLSx6O-105" edge="1">
          <mxGeometry relative="1" as="geometry">
            <mxPoint x="160" y="200" as="targetPoint" />
          </mxGeometry>
        </mxCell>
        <mxCell id="mHHDpfGU3PxfS-aLSx6O-115" value="YES" style="edgeLabel;html=1;align=center;verticalAlign=middle;resizable=0;points=[];" parent="mHHDpfGU3PxfS-aLSx6O-113" vertex="1" connectable="0">
          <mxGeometry x="-0.9101" y="1" relative="1" as="geometry">
            <mxPoint as="offset" />
          </mxGeometry>
        </mxCell>
        <mxCell id="mHHDpfGU3PxfS-aLSx6O-105" value="DO YOU WANT MORE SNACKS?" style="rhombus;whiteSpace=wrap;html=1;" parent="mHHDpfGU3PxfS-aLSx6O-132" vertex="1">
          <mxGeometry x="460" y="440" width="120" height="130" as="geometry" />
        </mxCell>
        <mxCell id="mHHDpfGU3PxfS-aLSx6O-111" style="edgeStyle=orthogonalEdgeStyle;rounded=0;orthogonalLoop=1;jettySize=auto;html=1;entryX=0.5;entryY=0;entryDx=0;entryDy=0;" parent="mHHDpfGU3PxfS-aLSx6O-132" source="mHHDpfGU3PxfS-aLSx6O-103" target="mHHDpfGU3PxfS-aLSx6O-105" edge="1">
          <mxGeometry relative="1" as="geometry" />
        </mxCell>
        <mxCell id="mHHDpfGU3PxfS-aLSx6O-110" value="" style="endArrow=classic;html=1;rounded=0;" parent="mHHDpfGU3PxfS-aLSx6O-132" target="mHHDpfGU3PxfS-aLSx6O-105" edge="1">
          <mxGeometry width="50" height="50" relative="1" as="geometry">
            <mxPoint x="280" y="390" as="sourcePoint" />
            <mxPoint x="340" y="420" as="targetPoint" />
          </mxGeometry>
        </mxCell>
        <mxCell id="mHHDpfGU3PxfS-aLSx6O-112" value="" style="endArrow=classic;html=1;rounded=0;entryX=0.836;entryY=0.319;entryDx=0;entryDy=0;entryPerimeter=0;" parent="mHHDpfGU3PxfS-aLSx6O-132" target="mHHDpfGU3PxfS-aLSx6O-105" edge="1">
          <mxGeometry width="50" height="50" relative="1" as="geometry">
            <mxPoint x="759" y="390" as="sourcePoint" />
            <mxPoint x="957" y="485" as="targetPoint" />
          </mxGeometry>
        </mxCell>
        <mxCell id="mHHDpfGU3PxfS-aLSx6O-116" value="Add up the total cost of all bought snacks and store it as snacks so it can be added to the printed receipt." style="whiteSpace=wrap;html=1;aspect=fixed;" parent="mHHDpfGU3PxfS-aLSx6O-132" vertex="1">
          <mxGeometry x="470" y="620" width="100" height="100" as="geometry" />
        </mxCell>
        <mxCell id="mHHDpfGU3PxfS-aLSx6O-117" value="NO" style="edgeStyle=orthogonalEdgeStyle;rounded=0;orthogonalLoop=1;jettySize=auto;html=1;entryX=0.5;entryY=0;entryDx=0;entryDy=0;" parent="mHHDpfGU3PxfS-aLSx6O-132" source="mHHDpfGU3PxfS-aLSx6O-105" target="mHHDpfGU3PxfS-aLSx6O-116" edge="1">
          <mxGeometry relative="1" as="geometry" />
        </mxCell>
        <mxCell id="mHHDpfGU3PxfS-aLSx6O-121" value="" style="endArrow=none;html=1;rounded=0;" parent="mHHDpfGU3PxfS-aLSx6O-132" edge="1">
          <mxGeometry width="50" height="50" relative="1" as="geometry">
            <mxPoint x="60" y="670" as="sourcePoint" />
            <mxPoint x="60" y="260" as="targetPoint" />
          </mxGeometry>
        </mxCell>
        <mxCell id="mHHDpfGU3PxfS-aLSx6O-123" value="NO" style="edgeLabel;html=1;align=center;verticalAlign=middle;resizable=0;points=[];" parent="mHHDpfGU3PxfS-aLSx6O-121" vertex="1" connectable="0">
          <mxGeometry x="0.7627" y="2" relative="1" as="geometry">
            <mxPoint as="offset" />
          </mxGeometry>
        </mxCell>
        <mxCell id="mHHDpfGU3PxfS-aLSx6O-122" value="" style="endArrow=classic;html=1;rounded=0;entryX=-0.051;entryY=0.616;entryDx=0;entryDy=0;entryPerimeter=0;" parent="mHHDpfGU3PxfS-aLSx6O-132" edge="1">
          <mxGeometry width="50" height="50" relative="1" as="geometry">
            <mxPoint x="60" y="669" as="sourcePoint" />
            <mxPoint x="249.89999999999998" y="670.5999999999999" as="targetPoint" />
          </mxGeometry>
        </mxCell>
        <mxCell id="mHHDpfGU3PxfS-aLSx6O-125" value="END" style="ellipse;whiteSpace=wrap;html=1;fillColor=#f8cecc;strokeColor=#b85450;" parent="mHHDpfGU3PxfS-aLSx6O-132" vertex="1">
          <mxGeometry x="460" y="780" width="120" height="80" as="geometry" />
        </mxCell>
        <mxCell id="mHHDpfGU3PxfS-aLSx6O-127" style="edgeStyle=orthogonalEdgeStyle;rounded=0;orthogonalLoop=1;jettySize=auto;html=1;entryX=0.5;entryY=0;entryDx=0;entryDy=0;" parent="mHHDpfGU3PxfS-aLSx6O-132" source="mHHDpfGU3PxfS-aLSx6O-116" target="mHHDpfGU3PxfS-aLSx6O-125" edge="1">
          <mxGeometry relative="1" as="geometry" />
        </mxCell>
        <mxCell id="mHHDpfGU3PxfS-aLSx6O-130" style="edgeStyle=orthogonalEdgeStyle;rounded=0;orthogonalLoop=1;jettySize=auto;html=1;entryX=0;entryY=0.5;entryDx=0;entryDy=0;" parent="mHHDpfGU3PxfS-aLSx6O-132" source="mHHDpfGU3PxfS-aLSx6O-128" target="mHHDpfGU3PxfS-aLSx6O-116" edge="1">
          <mxGeometry relative="1" as="geometry" />
        </mxCell>
        <mxCell id="mHHDpfGU3PxfS-aLSx6O-128" value="SET snacks TO&amp;nbsp; 0" style="whiteSpace=wrap;html=1;aspect=fixed;" parent="mHHDpfGU3PxfS-aLSx6O-132" vertex="1">
          <mxGeometry x="250" y="620" width="100" height="100" as="geometry" />
        </mxCell>
        <mxCell id="mHHDpfGU3PxfS-aLSx6O-138" value="" style="group" parent="1" vertex="1" connectable="0">
          <mxGeometry x="864" y="1754" width="790" height="400" as="geometry" />
        </mxCell>
        <mxCell id="mHHDpfGU3PxfS-aLSx6O-136" value="Scenarios" style="text;strokeColor=none;fillColor=none;html=1;fontSize=24;fontStyle=1;verticalAlign=middle;align=center;" parent="mHHDpfGU3PxfS-aLSx6O-138" vertex="1">
          <mxGeometry x="340" width="100" height="40" as="geometry" />
        </mxCell>
        <mxCell id="mHHDpfGU3PxfS-aLSx6O-137" value="&lt;h1&gt;&lt;font style=&quot;font-size: 20px;&quot;&gt;1. Purchase of no snacks.&lt;/font&gt;&lt;br&gt;&lt;/h1&gt;&lt;div&gt;&lt;font color=&quot;#ff3333&quot; style=&quot;font-size: 19px;&quot;&gt;&lt;i&gt;According the flowchart, $0.00 will be stored under snacks.&lt;/i&gt;&lt;/font&gt;&lt;/div&gt;&lt;div&gt;&lt;i style=&quot;font-size: 19px; color: rgb(255, 51, 51); background-color: initial;&quot;&gt;&amp;nbsp;&lt;/i&gt;&lt;br&gt;&lt;/div&gt;&lt;font style=&quot;font-size: 20px;&quot;&gt;&lt;b&gt;2. Purchase of 4 soft-drinks, determine the cost.&lt;/b&gt;&lt;/font&gt;&lt;br&gt;&lt;i style=&quot;border-color: var(--border-color); color: rgb(255, 51, 51); font-size: 19px;&quot;&gt;&lt;br&gt;According the flowchart, $9.00 will be stored under snacks.&lt;br&gt;&lt;/i&gt;&lt;br&gt;&lt;b&gt;&lt;font style=&quot;font-size: 20px;&quot;&gt;3.&amp;nbsp;&lt;/font&gt;&lt;/b&gt;&lt;b style=&quot;border-color: var(--border-color); font-size: 20px;&quot;&gt;Purchase of 2 soft-drinks, 2 beers and 2 wines, determine the cost.&lt;/b&gt;&lt;br&gt;&lt;br&gt;&lt;i style=&quot;border-color: var(--border-color); color: rgb(255, 51, 51); font-size: 19px;&quot;&gt;According the flowchart, $34.50 will be stored under snacks.&lt;br&gt;&lt;br&gt;&lt;b style=&quot;border-color: var(--border-color); color: rgb(0, 0, 0); font-size: 12px; font-style: normal;&quot;&gt;&lt;font style=&quot;border-color: var(--border-color); font-size: 20px;&quot;&gt;4.&amp;nbsp;&lt;/font&gt;&lt;/b&gt;&lt;b style=&quot;border-color: var(--border-color); color: rgb(0, 0, 0); font-style: normal; font-size: 20px;&quot;&gt;Purchase of 1 wine and 4 chocolate bars.&lt;br&gt;&lt;/b&gt;&lt;br&gt;&lt;i style=&quot;border-color: var(--border-color);&quot;&gt;According the flowchart, $14.75 will be stored under snacks.&lt;br style=&quot;border-color: var(--border-color);&quot;&gt;&lt;/i&gt;&lt;br&gt;&lt;/i&gt;" style="text;html=1;strokeColor=none;fillColor=none;spacing=5;spacingTop=-20;whiteSpace=wrap;overflow=hidden;rounded=0;" parent="mHHDpfGU3PxfS-aLSx6O-138" vertex="1">
          <mxGeometry y="55" width="790" height="345" as="geometry" />
        </mxCell>
      </root>
    </mxGraphModel>
  </diagram>
</mxfile>
